<?xml version="1.0" encoding="UTF-8"?>
<svg width="54px" height="88px" viewBox="0 0 54 88" version="1.1" xmlns="http://www.w3.org/2000/svg" xmlns:xlink="http://www.w3.org/1999/xlink">
    <!-- Generator: Sketch 41.2 (35397) - http://www.bohemiancoding.com/sketch -->
    <title>Untitled</title>
    <desc>Created with Sketch.</desc>
    <defs></defs>
    <g id="Page-1" stroke="none" stroke-width="1" fill="none" fill-rule="evenodd">
        <g id="noun_687056_cc" fill="#000000">
            <g id="Group" transform="translate(0.000000, 0.637820)">
                <path d="M15,0.36218 C12.23,0.36218 10,2.59218 10,5.36218 C10,8.13218 12.23,10.36218 15,10.36218 L8.875,33.98718 C3.429829,36.548503 0,40.249762 0,44.36218 L25,44.36218 L25,84.36218 C24.9897994,85.0834518 25.3687506,85.7543427 25.9917457,86.1179554 C26.6147408,86.4815682 27.3852592,86.4815682 28.0082543,86.1179554 C28.6312494,85.7543427 29.0102006,85.0834518 29,84.36218 L29,44.36218 L54,44.36218 C54,40.249762 50.570171,36.548503 45.125,33.98718 L39,10.36218 C41.77,10.36218 44,8.13218 44,5.36218 C44,2.59218 41.77,0.36218 39,0.36218 L15,0.36218 Z" id="Shape"></path>
            </g>
        </g>
    </g>
</svg>