<?xml version="1.0" encoding="UTF-8"?>
<svg width="58px" height="90px" viewBox="0 0 58 90" version="1.1" xmlns="http://www.w3.org/2000/svg" xmlns:xlink="http://www.w3.org/1999/xlink">
    <!-- Generator: Sketch 41.2 (35397) - http://www.bohemiancoding.com/sketch -->
    <title>Untitled</title>
    <desc>Created with Sketch.</desc>
    <defs></defs>
    <g id="Page-1" stroke="none" stroke-width="1" fill="none" fill-rule="evenodd">
        <g id="noun_688475_cc" fill="#000000">
            <g id="Group" transform="translate(0.000000, 0.637820)">
                <path d="M17,0.36218 C13.156595,0.36218 10,3.51877 10,7.36218 C10,10.33384 11.898717,12.85328 14.53125,13.86218 L9.15625,34.67468 C3.821711,37.41625 0,41.42094 0,46.36218 C0.000110380603,47.4667038 0.895476225,48.3620696 2,48.36218 L27,48.36218 L27,86.36218 C26.98506,87.41878 27.943272,88.39343 29,88.39343 C30.056728,88.39343 31.01494,87.41878 31,86.36218 L31,48.36218 L56,48.36218 C57.1045238,48.3620696 57.9998896,47.4667038 58,46.36218 C58,41.42094 54.178289,37.41625 48.84375,34.67468 L43.46875,13.86218 C46.101283,12.85328 48,10.33384 48,7.36218 C48,3.51877 44.843405,0.36218 41,0.36218 L17,0.36218 Z M17,4.36218 L41,4.36218 C42.696595,4.36218 44,5.66558 44,7.36218 C44,9.05877 42.696595,10.36218 41,10.36218 C40.3812764,10.3619479 39.7972742,10.6480655 39.4182616,11.137114 C39.039249,11.6261625 38.9078963,12.2630835 39.0625,12.86218 L45.1875,36.48718 C45.3374974,37.0662115 45.7387595,37.547726 46.28125,37.79968 C50.23727,39.66053 52.661628,41.99403 53.5625,44.36218 L4.4375,44.36218 C5.338372,41.99403 7.76273,39.66053 11.71875,37.79968 C12.2612405,37.547726 12.6625026,37.0662115 12.8125,36.48718 L18.9375,12.86218 C19.0921037,12.2630835 18.960751,11.6261625 18.5817384,11.137114 C18.2027258,10.6480655 17.6187236,10.3619479 17,10.36218 C15.303405,10.36218 14,9.05877 14,7.36218 C14,5.66558 15.303405,4.36218 17,4.36218 Z" id="Shape"></path>
            </g>
        </g>
    </g>
</svg>